<?xml version="1.0" encoding="UTF-8" standalone="no"?>
<!-- Created with Inkscape (http://www.inkscape.org/) -->

<svg
   width="496"
   height="496"
   viewBox="0 0 131.23333 131.23334"
   version="1.1"
   id="svg4149"
   inkscape:version="1.1 (1:1.1+202105261517+ce6663b3b7)"
   sodipodi:docname="cookit_user_circle.svg"
   xmlns:inkscape="http://www.inkscape.org/namespaces/inkscape"
   xmlns:sodipodi="http://sodipodi.sourceforge.net/DTD/sodipodi-0.dtd"
   xmlns="http://www.w3.org/2000/svg"
   xmlns:svg="http://www.w3.org/2000/svg"
   xmlns:rdf="http://www.w3.org/1999/02/22-rdf-syntax-ns#"
   xmlns:cc="http://creativecommons.org/ns#"
   xmlns:dc="http://purl.org/dc/elements/1.1/">
  <defs
     id="defs4143" />
  <sodipodi:namedview
     id="base"
     pagecolor="#ffffff"
     bordercolor="#666666"
     borderopacity="1.0"
     inkscape:pageopacity="0.0"
     inkscape:pageshadow="2"
     inkscape:zoom="0.49497475"
     inkscape:cx="43.436559"
     inkscape:cy="310.11683"
     inkscape:document-units="mm"
     inkscape:current-layer="layer1"
     showgrid="false"
     inkscape:window-width="1366"
     inkscape:window-height="703"
     inkscape:window-x="0"
     inkscape:window-y="0"
     inkscape:window-maximized="1"
     units="px"
     inkscape:pagecheckerboard="0"
     width="448px" />
  <metadata
     id="metadata4146">
    <rdf:RDF>
      <cc:Work
         rdf:about="">
        <dc:format>image/svg+xml</dc:format>
        <dc:type
           rdf:resource="http://purl.org/dc/dcmitype/StillImage" />
      </cc:Work>
    </rdf:RDF>
  </metadata>
  <g
     inkscape:label="Camada 1"
     inkscape:groupmode="layer"
     id="layer1"
     transform="translate(0,-265.24998)">
    <path
       id="path1833"
       style="stroke-width:0.264583;fill:#000000;fill-opacity:1;stroke:none"
       d="M 65.61664,265.24998 C 29.36875,265.24998 0,294.61872 0,330.86664 c 0,36.24794 29.36875,65.61666 65.61664,65.61666 36.2479,0 65.6167,-29.36872 65.6167,-65.61666 0,-36.24792 -29.3688,-65.61666 -65.6167,-65.61666 z m 0,14.81667 c 3.9315,0.001 7.5226,2.23092 9.2682,5.75365 1.4129,-1.9199 3.6873,-3.16673 6.2539,-3.16673 4.2863,0 7.7613,3.47492 7.7613,7.76129 v 14.52261 H 78.58124 V 293.8255 c 0,-0.73295 -0.59,-1.32345 -1.3229,-1.32345 -0.7329,0 -1.3229,0.5905 -1.3229,1.32345 v 11.11197 h -8.9959 V 293.8255 c 0,-0.73295 -0.59,-1.32345 -1.3229,-1.32345 -0.7329,0 -1.3229,0.5905 -1.3229,1.32345 v 11.11197 H 55.29792 V 293.8255 c 0,-0.73295 -0.59,-1.32345 -1.32292,-1.32345 -0.73295,0 -1.32292,0.5905 -1.32292,1.32345 v 11.11197 H 42.33333 v -14.52261 c 0,-4.28637 3.47493,-7.76129 7.76129,-7.76129 2.56516,0 4.83878,1.2455 6.25181,3.16363 1.74684,-3.5222 5.33861,-5.75043 9.27021,-5.75055 z M 42.33333,307.5833 h 46.56671 v 7.40834 H 42.33333 Z m 0,10.05417 h 46.56671 c 0,12.85436 -10.429,23.28333 -23.2834,23.28333 -12.85433,0 -23.28331,-10.42897 -23.28331,-23.28333 z m 10.58334,30.1625 c 0.635,0 1.26989,0.10575 1.87843,0.29096 3.43959,1.11125 7.03804,1.82571 10.82154,1.82571 3.7836,0 7.408,-0.71446 10.8211,-1.82571 0.6085,-0.18521 1.2439,-0.29096 1.8789,-0.29096 11.3507,0 21.0873,6.45604 26.0615,15.82229 -9.3133,11.00667 -23.2304,18.04438 -38.7615,18.04438 -15.53102,0 -29.4481,-7.03771 -38.76143,-18.04438 4.97416,-9.36625 14.71083,-15.82229 26.06146,-15.82229 z" />
  </g>
</svg>
