<?xml version="1.0" encoding="UTF-8" standalone="no"?>
<!-- Created with Inkscape (http://www.inkscape.org/) -->

<svg
   width="448"
   height="512"
   viewBox="0 0 118.53333 135.46667"
   version="1.1"
   id="svg878"
   inkscape:version="1.1 (1:1.1+202105261517+ce6663b3b7)"
   sodipodi:docname="cookit_user.svg"
   xmlns:inkscape="http://www.inkscape.org/namespaces/inkscape"
   xmlns:sodipodi="http://sodipodi.sourceforge.net/DTD/sodipodi-0.dtd"
   xmlns="http://www.w3.org/2000/svg"
   xmlns:svg="http://www.w3.org/2000/svg">
  <sodipodi:namedview
     id="namedview880"
     pagecolor="#ffffff"
     bordercolor="#666666"
     borderopacity="1.0"
     inkscape:pageshadow="2"
     inkscape:pageopacity="0.0"
     inkscape:pagecheckerboard="0"
     inkscape:document-units="mm"
     showgrid="false"
     units="px"
     inkscape:zoom="0.46146184"
     inkscape:cx="203.70048"
     inkscape:cy="562.34336"
     inkscape:window-width="1366"
     inkscape:window-height="703"
     inkscape:window-x="0"
     inkscape:window-y="0"
     inkscape:window-maximized="1"
     inkscape:current-layer="layer1" />
  <defs
     id="defs875" />
  <g
     inkscape:label="Camada 1"
     inkscape:groupmode="layer"
     id="layer1">
    <path
       id="path5334"
       style="stroke-width:0.264583"
       d="M 59.26666,0 C 53.63733,1.8e-4 48.49471,3.19047 45.99357,8.23359 43.97036,5.48719 40.7145,3.70416 37.04166,3.70416 c -6.13727,0 -11.1125,4.97523 -11.1125,11.1125 V 33.33749 H 41.01041 V 18.25728 c 0,-0.87961 0.70784,-1.58854 1.5875,-1.58854 0.87961,0 1.5875,0.70893 1.5875,1.58854 V 33.33749 H 57.67916 V 18.25728 c 0,-0.87961 0.70784,-1.58854 1.5875,-1.58854 0.87961,0 1.5875,0.70893 1.5875,1.58854 V 33.33749 H 74.34791 V 18.25728 c 0,-0.87961 0.70784,-1.58854 1.5875,-1.58854 0.87961,0 1.5875,0.70893 1.5875,1.58854 V 33.33749 H 92.60416 V 14.81666 c 0,-6.13727 -4.9752,-11.1125 -11.1125,-11.1125 -3.67485,0 -6.93142,1.78515 -8.9545,4.53409 C 70.03782,3.19434 64.89586,0.00148 59.26666,0 Z m -33.3375,36.51249 v 10.58334 h 66.675 V 36.51249 Z m 0,13.75834 c 0,18.4051 14.93242,33.3375 33.3375,33.3375 18.40508,0 33.3375,-14.9324 33.3375,-33.3375 z m 3.70417,40.74583 C 13.26554,91.01666 0,104.28221 0,120.64999 v 3.70417 c 0,6.13503 4.97747,11.1125 11.1125,11.1125 h 96.30833 c 6.13502,0 11.1125,-4.97747 11.1125,-11.1125 v -3.70417 c 0,-16.36778 -13.26555,-29.63333 -29.63334,-29.63333 H 76.14366 c -5.13953,2.36141 -10.85773,3.70417 -16.877,3.70417 -6.01927,0 -11.71435,-1.34276 -16.877,-3.70417 z" />
  </g>
</svg>
