<?xml version="1.0" encoding="UTF-8" standalone="no"?>
<!-- Created with Inkscape (http://www.inkscape.org/) -->

<svg
   xmlns:dc="http://purl.org/dc/elements/1.1/"
   xmlns:cc="http://creativecommons.org/ns#"
   xmlns:rdf="http://www.w3.org/1999/02/22-rdf-syntax-ns#"
   xmlns:svg="http://www.w3.org/2000/svg"
   xmlns="http://www.w3.org/2000/svg"
   xmlns:sodipodi="http://sodipodi.sourceforge.net/DTD/sodipodi-0.dtd"
   xmlns:inkscape="http://www.inkscape.org/namespaces/inkscape"
   width="870"
   height="240"
   viewBox="0 0 230.18749 63.500002"
   version="1.1"
   id="svg4912"
   inkscape:version="0.92.3 (2405546, 2018-03-11)"
   sodipodi:docname="cookit_logo.svg">
  <defs
     id="defs4906" />
  <sodipodi:namedview
     id="base"
     pagecolor="#ffffff"
     bordercolor="#666666"
     borderopacity="1.0"
     inkscape:pageopacity="0.0"
     inkscape:pageshadow="2"
     inkscape:zoom="0.35"
     inkscape:cx="857.14286"
     inkscape:cy="560"
     inkscape:document-units="mm"
     inkscape:current-layer="layer1"
     showgrid="false"
     units="px"
     inkscape:window-width="1366"
     inkscape:window-height="703"
     inkscape:window-x="0"
     inkscape:window-y="0"
     inkscape:window-maximized="1" />
  <metadata
     id="metadata4909">
    <rdf:RDF>
      <cc:Work
         rdf:about="">
        <dc:format>image/svg+xml</dc:format>
        <dc:type
           rdf:resource="http://purl.org/dc/dcmitype/StillImage" />
        <dc:title></dc:title>
      </cc:Work>
    </rdf:RDF>
  </metadata>
  <g
     inkscape:label="Camada 1"
     inkscape:groupmode="layer"
     id="layer1"
     transform="translate(0,-233.49997)">
    <g
       transform="translate(-60.854166,-79.37498)"
       id="g4767">
      <path
         style="font-style:normal;font-variant:normal;font-weight:bold;font-stretch:normal;font-size:68.93610382px;line-height:1.25;font-family:'Alfa Slab One';-inkscape-font-specification:'Alfa Slab One Bold';letter-spacing:0px;word-spacing:0px;fill:#000000;fill-opacity:1;stroke:none;stroke-width:0.26458332"
         d="m 185.20833,312.87497 v 63.5 h 18.95078 v -15.67088 l 8.48682,15.67088 h 20.1874 l -15.20682,-24.2409 15.20682,-20.73827 h -18.45675 l -10.21747,14.61668 v -33.13751 z"
         id="path2503-0"
         inkscape:connector-curvature="0"
         sodipodi:nodetypes="cccccccccccc" />
      <path
         style="font-style:normal;font-variant:normal;font-weight:bold;font-stretch:normal;font-size:68.93610382px;line-height:1.25;font-family:'Alfa Slab One';-inkscape-font-specification:'Alfa Slab One Bold';letter-spacing:0px;word-spacing:0px;fill:#000000;fill-opacity:1;stroke:none;stroke-width:0.26458332"
         d="m 238.125,312.87496 v 63.5 h 18.52083 v -13.26731 -50.23269 z"
         id="path2505-9"
         inkscape:connector-curvature="0"
         sodipodi:nodetypes="cccccc" />
      <path
         inkscape:connector-curvature="0"
         id="path2507-3"
         style="font-style:normal;font-variant:normal;font-weight:bold;font-stretch:normal;font-size:68.93610382px;line-height:1.25;font-family:'Alfa Slab One';-inkscape-font-specification:'Alfa Slab One Bold';letter-spacing:0px;word-spacing:0px;fill:#000000;fill-opacity:1;stroke:none;stroke-width:0.26458332"
         d="m 278.0393,376.37497 c -5.34207,0 -9.37382,-1.33368 -12.09524,-4.00105 -2.67104,-2.71968 -4.00655,-7.2699 -4.00655,-13.65065 v -36.3233 h 18.44524 v 8.99582 h 10.20534 v 13.12764 h -10.20534 v 12.86615 c 0,1.72595 0.35278,3.00732 1.05834,3.84414 0.75595,0.78452 1.86467,1.17678 3.32617,1.17678 1.91508,0 4.00655,-0.23536 6.27442,-0.70606 v 12.31697 c -1.41112,0.57532 -3.3262,1.09833 -5.74525,1.56905 -2.36866,0.52301 -4.78769,0.78451 -7.25713,0.78451 z"
         sodipodi:nodetypes="sccccccccscscccs" />
      <path
         id="path2717-6-6"
         d="m 87.94865,312.87498 c -17.971403,0 -27.094484,10.58332 -27.094484,31.75 0,11.08227 2.33833,19.14446 7.01456,24.18664 4.722085,5.04221 11.415121,7.56336 20.079924,7.56336 8.664755,0 15.35887,-2.52115 20.08094,-7.56336 3.86161,-4.16379 6.12697,-10.38898 6.79958,-18.67173 H 93.261493 c -0.131892,4.62452 -0.597264,5.66439 -1.35444,7.98918 -0.925895,2.81525 -2.238251,4.22299 -3.937223,4.22299 -1.698984,0 -3.011328,-1.40774 -3.937224,-4.22299 -0.91692,-2.81521 -1.375632,-7.31648 -1.375632,-13.50409 0,-11.81806 1.789044,-17.72707 5.312856,-17.72707 3.15948,0 4.960523,2.00246 5.291663,11.50316 H 114.7496 c -1.68879,-17.01618 -10.68759,-25.52609 -26.80095,-25.52609 z"
         style="font-style:normal;font-variant:normal;font-weight:bold;font-stretch:normal;font-size:68.93610382px;line-height:1.25;font-family:'Alfa Slab One';-inkscape-font-specification:'Alfa Slab One Bold';letter-spacing:0px;word-spacing:0px;fill:#000000;fill-opacity:1;stroke:none;stroke-width:0.26458332"
         inkscape:connector-curvature="0" />
      <path
         id="path2736-1-0"
         d="m 133.87914,344.62497 c -4.97626,0 -8.86604,1.35895 -11.66956,4.07728 -2.80354,2.68206 -4.20543,6.6148 -4.20543,11.79772 0,5.18294 1.40189,9.13368 4.20543,11.852 2.80352,2.68206 6.6933,4.02301 11.66956,4.02301 4.97626,0 8.86604,-1.34095 11.66957,-4.02301 2.80354,-2.71832 4.20544,-6.66906 4.20544,-11.852 0,-5.11043 -1.38424,-9.02461 -4.15272,-11.74295 -2.7685,-2.75456 -6.67595,-4.13205 -11.72229,-4.13205 z m 0,9.65729 c 1.09338,0 1.94008,0.53963 2.5399,1.6185 0.59986,1.06468 0.89969,2.59762 0.89969,4.59921 0,2.03 -0.30361,3.57741 -0.91105,4.64209 -0.60743,1.05048 -1.45034,1.57562 -2.52854,1.57562 -1.07818,0 -1.92109,-0.52514 -2.52853,-1.57562 -0.60743,-1.06468 -0.91105,-2.6121 -0.91105,-4.64209 0,-2.02997 0.30364,-3.57043 0.91105,-4.6209 0.60744,-1.06467 1.45033,-1.59681 2.52853,-1.59681 z"
         style="font-style:normal;font-variant:normal;font-weight:bold;font-stretch:normal;font-size:68.93610382px;line-height:1.25;font-family:'Alfa Slab One';-inkscape-font-specification:'Alfa Slab One Bold';letter-spacing:0px;word-spacing:0px;fill:#000000;fill-opacity:1;stroke:none;stroke-width:0.26458332"
         inkscape:connector-curvature="0" />
      <path
         inkscape:connector-curvature="0"
         style="font-style:normal;font-variant:normal;font-weight:bold;font-stretch:normal;font-size:68.93610382px;line-height:1.25;font-family:'Alfa Slab One';-inkscape-font-specification:'Alfa Slab One Bold';letter-spacing:0px;word-spacing:0px;fill:#000000;fill-opacity:1;stroke:none;stroke-width:0.26458332"
         d="m 165.62915,344.62497 c -4.97627,0 -8.86604,1.35895 -11.66957,4.07728 -2.80353,2.68206 -4.20542,6.6148 -4.20542,11.79772 0,5.18294 1.40189,9.13368 4.20542,11.852 2.80353,2.68206 6.6933,4.02301 11.66957,4.02301 4.97625,0 8.86603,-1.34095 11.66957,-4.02301 2.80353,-2.71832 4.20543,-6.66906 4.20543,-11.852 0,-5.11043 -1.38423,-9.02461 -4.15272,-11.74295 -2.76849,-2.75456 -6.67595,-4.13205 -11.72228,-4.13205 z m 0,9.65729 c 1.09338,0 1.94008,0.53963 2.5399,1.6185 0.59985,1.06468 0.89968,2.59762 0.89968,4.59921 0,2.03 -0.30361,3.57741 -0.91105,4.64209 -0.60743,1.05048 -1.45033,1.57562 -2.52853,1.57562 -1.07819,0 -1.92109,-0.52514 -2.52853,-1.57562 -0.60743,-1.06468 -0.91105,-2.6121 -0.91105,-4.64209 0,-2.02997 0.30363,-3.57043 0.91105,-4.6209 0.60744,-1.06467 1.45033,-1.59681 2.52853,-1.59681 z"
         id="path2768-6" />
      <path
         sodipodi:nodetypes="scssccsccsscs"
         inkscape:connector-curvature="0"
         id="path4749"
         transform="matrix(0.26458333,0,0,0.26458333,0,222.91665)"
         d="m 506,340 c -13.17146,0 -25.09289,6.72711 -31.90039,17.77539 -0.6299,-0.034 -1.25959,-0.0488 -1.88477,-0.0488 -20.68263,0 -37.50781,16.82717 -37.50781,37.50977 0,17.30377 11.87247,32.19889 28.27539,36.34961 v 32.8281 C 473.4896,454.81482 487.82017,449.99998 506,449.99998 c 18.31029,0 32.64184,4.81298 43.01758,14.4082 v -32.81834 c 16.40012,-4.15211 28.27539,-19.0525 28.27539,-36.35351 0,-20.6826 -16.82522,-37.50977 -37.50781,-37.50977 -0.62521,0 -1.25292,0.0125 -1.88282,0.0488 C 531.09341,346.72711 519.17078,340 506,340 Z"
         style="stroke-width:0.68245959" />
    </g>
  </g>
</svg>
